<svg xmlns:xlink="http://www.w3.org/1999/xlink" xmlns="http://www.w3.org/2000/svg" width="56" height="56" viewBox="0 0 56 56" fill="none">
<rect width="56" height="56" rx="8" fill="#153B72"/>
<path d="M28 0C33.5379 0 38.9514 1.64217 43.556 4.71885C48.1605 7.79553 51.7494 12.1685 53.8686 17.2849C55.9879 22.4012 56.5424 28.0311 55.462 33.4625C54.3816 38.894 51.7149 43.8831 47.799 47.799C43.8831 51.7149 38.894 54.3816 33.4625 55.462C28.0311 56.5424 22.4012 55.9879 17.2849 53.8686C12.1685 51.7494 7.79553 48.1605 4.71885 43.556C1.64217 38.9514 0 33.5379 0 28C0 20.5739 2.94999 13.452 8.20101 8.20101C13.452 2.94999 20.5739 0 28 0Z" fill="#153B72"/>
<mask id="mask0_1398_1502" style="mask-type:luminance" maskUnits="userSpaceOnUse" x="11" y="10" width="34" height="34">
<path d="M45 10H11V44H45V10Z" fill="white"/>
</mask>
<g mask="url(#mask0_1398_1502)">
<path fill-rule="evenodd" clip-rule="evenodd" d="M35.565 41.319L43.518 34.104L31.423 25.329L30.929 32.751L35.565 41.319Z" fill="#EA2D23"/>
<path fill-rule="evenodd" clip-rule="evenodd" d="M19.3669 42.204L31.3249 33.424L28.0429 27.272L21.1429 39.963L19.3669 42.204Z" fill="#48BA41"/>
<path fill-rule="evenodd" clip-rule="evenodd" d="M36.704 42.284L24.722 33.369L28.0311 27.351L34.931 40.042L36.704 42.284Z" fill="#FB9E17"/>
<path fill-rule="evenodd" clip-rule="evenodd" d="M13.722 33.327L24.576 25.327L27.459 24.715L23.119 14.064L11.625 35.45L12.465 35.387L13.722 33.327Z" fill="#04BFF3"/>
<path fill-rule="evenodd" clip-rule="evenodd" d="M28.007 35.804L24.687 33.426L25.487 32.075L28.011 32.282L30.535 32.075L31.335 33.426L28.007 35.804Z" fill="#67813D"/>
<path d="M16.269 43.21C19.179 43.21 21.538 40.851 21.538 37.941C21.538 35.031 19.179 32.672 16.269 32.672C13.359 32.672 11 35.031 11 37.941C11 40.851 13.359 43.21 16.269 43.21Z" fill="#00AA4A"/>
<path fill-rule="evenodd" clip-rule="evenodd" d="M42.278 33.326L31.424 25.326L28.541 24.714L32.881 14.062L44.375 35.447L43.535 35.384L42.278 33.326Z" fill="#E83381"/>
<path d="M39.732 32.672C40.7743 32.672 41.7932 32.9811 42.6599 33.5602C43.5265 34.1392 44.202 34.9623 44.6009 35.9253C44.9998 36.8882 45.1041 37.9478 44.9008 38.9701C44.6974 39.9924 44.1955 40.9314 43.4585 41.6685C42.7215 42.4055 41.7824 42.9074 40.7602 43.1107C39.7379 43.3141 38.6783 43.2097 37.7153 42.8108C36.7523 42.412 35.9293 41.7365 35.3502 40.8699C34.7711 40.0032 34.462 38.9843 34.462 37.942C34.462 36.5443 35.0173 35.2039 36.0056 34.2156C36.9939 33.2272 38.3343 32.672 39.732 32.672Z" fill="#EA2D23"/>
<path d="M39.732 41.997C41.9721 41.997 43.788 40.1811 43.788 37.941C43.788 35.7009 41.9721 33.885 39.732 33.885C37.492 33.885 35.676 35.7009 35.676 37.941C35.676 40.1811 37.492 41.997 39.732 41.997Z" fill="#F7B091"/>
<path fill-rule="evenodd" clip-rule="evenodd" d="M32.66 18.516C33.089 17.702 33.2974 16.7898 33.2644 15.8703C33.2314 14.9507 32.9583 14.0558 32.4721 13.2746C31.986 12.4933 31.3037 11.853 30.4933 11.4173C29.6828 10.9816 28.7724 10.7656 27.8526 10.791C26.9328 10.8163 26.0357 11.0821 25.2505 11.5617C24.4652 12.0414 23.8193 12.7184 23.3769 13.5252C22.9345 14.332 22.711 15.2406 22.7288 16.1606C22.7465 17.0805 23.0048 17.9798 23.478 18.769L28.039 27.269L32.66 18.512V18.516Z" fill="#723B87"/>
<path d="M27.998 20.116C30.2381 20.116 32.054 18.3001 32.054 16.06C32.054 13.8199 30.2381 12.004 27.998 12.004C25.7579 12.004 23.942 13.8199 23.942 16.06C23.942 18.3001 25.7579 20.116 27.998 20.116Z" fill="#BBA9CC"/>
<path fill-rule="evenodd" clip-rule="evenodd" d="M24.691 33.427L20.909 40.438L12.866 33.917L24.526 25.365L23.577 30.931L24.691 33.427Z" fill="#00AA4A"/>
<path d="M16.269 41.997C18.5091 41.997 20.325 40.1811 20.325 37.941C20.325 35.7009 18.5091 33.885 16.269 33.885C14.0289 33.885 12.213 35.7009 12.213 37.941C12.213 40.1811 14.0289 41.997 16.269 41.997Z" fill="#A4D6A3"/>
<path fill-rule="evenodd" clip-rule="evenodd" d="M28.0021 34.604C29.0444 34.604 30.0633 34.2949 30.9299 33.7158C31.7966 33.1368 32.472 32.3137 32.8709 31.3507C33.2698 30.3878 33.3741 29.3282 33.1708 28.3059C32.9675 27.2836 32.4655 26.3446 31.7285 25.6075C30.9915 24.8705 30.0525 24.3686 29.0302 24.1653C28.0079 23.9619 26.9483 24.0663 25.9853 24.4652C25.0223 24.864 24.1993 25.5395 23.6202 26.4061C23.0411 27.2728 22.7321 28.2917 22.7321 29.334C22.7321 30.7317 23.2873 32.0721 24.2756 33.0605C25.2639 34.0488 26.6044 34.604 28.0021 34.604Z" fill="#257742"/>
<mask id="mask1_1398_1502" style="mask-type:luminance" maskUnits="userSpaceOnUse" x="22" y="24" width="12" height="11">
<path d="M28.0021 34.604C29.0444 34.604 30.0633 34.2949 30.9299 33.7158C31.7966 33.1368 32.472 32.3137 32.8709 31.3507C33.2698 30.3878 33.3741 29.3282 33.1708 28.3059C32.9675 27.2836 32.4655 26.3446 31.7285 25.6075C30.9915 24.8705 30.0525 24.3686 29.0302 24.1653C28.0079 23.9619 26.9483 24.0663 25.9853 24.4652C25.0223 24.864 24.1993 25.5395 23.6202 26.4061C23.0411 27.2728 22.7321 28.2917 22.7321 29.334C22.7321 30.7317 23.2873 32.0721 24.2756 33.0605C25.2639 34.0488 26.6044 34.604 28.0021 34.604Z" fill="white"/>
</mask>
<g mask="url(#mask1_1398_1502)">
<path fill-rule="evenodd" clip-rule="evenodd" d="M26.4451 24.299L28.0451 27.019L29.5981 24.314L27.9981 22.822L26.4451 24.299Z" fill="#713C38"/>
<path fill-rule="evenodd" clip-rule="evenodd" d="M28.0081 35.803L24.6841 33.441L25.4131 32.041L28.0131 32.285L30.5691 32.01L31.3401 33.428L28.0081 35.803Z" fill="#713C38"/>
<path fill-rule="evenodd" clip-rule="evenodd" d="M28.8241 25.667L29.6011 24.314C29.6011 24.314 31.3441 23.379 32.2621 23.86C33.1801 24.341 35.2811 24.035 35.7621 26.507C36.2431 28.979 36.4621 30.207 35.7181 31.276C34.9741 32.345 31.3321 33.418 31.3321 33.418L30.5651 32.008L28.8241 25.667Z" fill="#713C38"/>
</g>
<path fill-rule="evenodd" clip-rule="evenodd" d="M27.998 33.391C28.8003 33.3912 29.5846 33.1535 30.2518 32.7079C30.9189 32.2623 31.439 31.6288 31.7461 30.8876C32.0532 30.1465 32.1336 29.3308 31.9771 28.544C31.8206 27.7571 31.4343 27.0343 30.867 26.467C30.2997 25.8997 29.5769 25.5134 28.79 25.3569C28.0032 25.2004 27.1876 25.2808 26.4464 25.5879C25.7052 25.8951 25.0717 26.4151 24.6261 27.0822C24.1805 27.7494 23.9428 28.5337 23.943 29.336C23.9433 30.4114 24.3706 31.4426 25.131 32.203C25.8914 32.9634 26.9226 33.3907 27.998 33.391Z" fill="#BFC493"/>
<mask id="mask2_1398_1502" style="mask-type:luminance" maskUnits="userSpaceOnUse" x="23" y="25" width="10" height="9">
<path d="M27.998 33.391C28.8003 33.3912 29.5846 33.1535 30.2518 32.7079C30.9189 32.2623 31.439 31.6288 31.7461 30.8876C32.0532 30.1465 32.1336 29.3308 31.9771 28.544C31.8206 27.7571 31.4343 27.0343 30.867 26.467C30.2997 25.8997 29.5769 25.5134 28.79 25.3569C28.0032 25.2004 27.1876 25.2808 26.4464 25.5879C25.7052 25.8951 25.0717 26.4151 24.6261 27.0822C24.1805 27.7494 23.9428 28.5337 23.943 29.336C23.9433 30.4114 24.3706 31.4426 25.131 32.203C25.8914 32.9634 26.9226 33.3907 27.998 33.391Z" fill="white"/>
</mask>
<g mask="url(#mask2_1398_1502)">
<path fill-rule="evenodd" clip-rule="evenodd" d="M26.4449 24.299L28.0449 27.019L29.5979 24.314L27.9979 22.822L26.4449 24.299Z" fill="#A49886"/>
<path fill-rule="evenodd" clip-rule="evenodd" d="M24.687 33.424L28.047 27.024L26.447 24.304C26.447 24.304 21.441 23.68 21.004 24.556C20.5404 25.3327 20.2565 26.2033 20.1733 27.104C20.0901 28.0046 20.2095 28.9125 20.523 29.761C21.486 32.079 22.01 33.698 22.492 34.223C22.974 34.748 24.692 33.423 24.692 33.423L24.687 33.424Z" fill="#A7BB93"/>
<path fill-rule="evenodd" clip-rule="evenodd" d="M28.0439 27.013L30.7369 32.327C30.7369 32.327 32.2619 31.641 32.4809 31.137C32.902 30.2992 33.0328 29.3453 32.8529 28.425C32.5689 27.244 32.0439 25.756 31.6059 25.8C31.4669 25.814 29.2379 24.947 28.9769 25.4L28.0439 27.013Z" fill="#BFA085"/>
</g>
</g>
</svg>