<svg xmlns:xlink="http://www.w3.org/1999/xlink" xmlns="http://www.w3.org/2000/svg" width="56" height="56" viewBox="0 0 56 56" fill="none">
<rect width="56" height="56" rx="8" fill="#1B8C42"/>
<path d="M28 56C43.464 56 56 43.464 56 28C56 12.536 43.464 0 28 0C12.536 0 0 12.536 0 28C0 43.464 12.536 56 28 56Z" fill="#1B8C42"/>
<mask id="mask0_1398_1439" style="mask-type:luminance" maskUnits="userSpaceOnUse" x="12" y="11" width="32" height="32">
<path d="M44 11H12V43H44V11Z" fill="white"/>
</mask>
<g mask="url(#mask0_1398_1439)">
<path fill-rule="evenodd" clip-rule="evenodd" d="M21.4421 29.922L26.3491 29.95C27.0101 29.133 28.1021 26.944 28.6811 25.973C29.1141 25.246 30.6661 22.236 31.1721 21.919C31.4411 22.162 31.1291 21.784 31.4721 22.242C31.568 22.3795 31.6542 22.5235 31.7301 22.673C31.9001 22.973 32.0501 23.239 32.2301 23.559C33.2611 25.372 38.8301 35.126 39.1071 35.281C39.9591 35.609 42.8391 35.403 43.9971 35.381C43.8831 34.751 38.4261 25.544 37.6461 24.204L31.4461 13.45C31.2171 13.131 31.3571 13.303 31.1691 13.137C30.2369 14.4518 29.3972 15.8298 28.6561 17.261C27.5341 19.213 21.4941 29.476 21.4391 29.926L21.4421 29.922Z" fill="white"/>
<path fill-rule="evenodd" clip-rule="evenodd" d="M31.1721 23.986C30.4867 24.9203 29.8844 25.9127 29.3721 26.952C28.4641 28.54 28.5621 28.108 29.7941 30.252C30.3941 31.293 33.1241 35.675 33.2631 36.482L17.5631 36.504C16.6476 37.8883 15.8514 39.3479 15.1831 40.867L40.8191 40.858C40.7511 40.218 36.6551 33.382 36.0191 32.293C35.2281 30.945 34.4561 29.578 33.6031 28.093C32.8639 26.6819 32.0515 25.3103 31.1691 23.984L31.1721 23.986Z" fill="white"/>
<path fill-rule="evenodd" clip-rule="evenodd" d="M12.0001 35.363L31.3641 35.385C31.0539 34.4913 30.616 33.6473 30.0641 32.879C29.8331 32.479 29.5971 32.061 29.3641 31.647C28.9551 30.907 28.9441 31.054 28.0001 31.054L19.6181 31.047C19.6271 30.423 21.6641 27.217 22.0631 26.531L27.2121 17.608C27.4121 17.042 26.0661 15.014 25.5881 14.202C25.4651 13.994 25.4161 13.893 25.2881 13.676C24.9881 13.16 25.2291 13.389 24.8311 13.135C24.2831 13.589 18.6111 23.735 18.3511 24.196C17.6231 25.474 12.1121 34.821 11.9971 35.363H12.0001Z" fill="white"/>
</g>
</svg>