<svg xmlns:xlink="http://www.w3.org/1999/xlink" xmlns="http://www.w3.org/2000/svg" width="56" height="56" viewBox="0 0 56 56" fill="none">
<g clip-path="url(#clip0_1398_1393)">
<path d="M48 0H8C3.58172 0 0 3.58172 0 8V48C0 52.4183 3.58172 56 8 56H48C52.4183 56 56 52.4183 56 48V8C56 3.58172 52.4183 0 48 0Z" fill="#001236"/>
<path opacity="0.47" d="M42.6253 37.7502L39.5764 35.7187L42.6253 37.7502Z" fill="#00FFFF"/>
<path opacity="0.47" d="M37.4796 31.8982C37.2214 32.5267 36.9009 33.1271 36.5276 33.6871L39.5765 35.7187L42.6254 37.7502C43.2663 36.792 43.8138 35.7653 44.2587 34.6827L37.4796 31.8951V31.8982Z" fill="#00FFFF"/>
<path opacity="0.47" d="M37.4796 31.8982C37.2214 32.5267 36.9009 33.1271 36.5276 33.6871L39.5765 35.7187L42.6254 37.7502C43.2663 36.792 43.8138 35.7653 44.2587 34.6827L37.4796 31.8951V31.8982Z" fill="#00FFFF"/>
<path d="M35.3515 37.7285C34.7262 36.9009 33.6031 36.6645 32.6791 37.1373C31.1204 37.9369 29.3284 38.3507 27.4338 38.2511C22.12 37.9649 17.8515 33.5502 17.7333 28.2302C17.6026 22.232 22.6146 17.3725 28.6658 17.7551C33.7742 18.0787 37.9213 22.2227 38.2449 27.3342C38.304 28.2582 38.2355 29.1542 38.0644 30.016L41.4213 30.688C41.5955 29.82 41.6858 28.9209 41.6858 28.0031H45.5746C45.5746 29.1822 45.4564 30.3365 45.2355 31.4502L41.4213 30.688C41.2471 31.5622 40.9889 32.4053 40.6591 33.208L37.492 31.9076C36.9724 33.1738 36.2444 34.2751 35.2924 35.2271L37.6755 37.6849C38.3102 37.0502 38.8858 36.3502 39.3866 35.5973L42.6222 37.7533C43.2631 36.7951 43.8106 35.7685 44.2555 34.6858L47.5658 36.0453C48.6702 33.3667 49.2426 30.4111 49.1431 27.3093C48.7915 16.2369 39.7755 7.21468 28.7031 6.8569C16.4826 6.46179 6.48976 16.4329 6.85376 28.6471C7.18976 39.872 16.4204 48.9689 27.6484 49.1525C30.744 49.2022 33.6902 48.5862 36.3533 47.4382H36.3502L45.4222 51.0596L40.7524 44.8778L35.3515 37.7285Z" fill="white"/>
<path d="M40.4288 40.4289L42.9551 42.9551C43.9382 41.972 44.8186 40.8893 45.5933 39.7289L42.6253 37.7502C41.9813 38.7147 41.2471 39.6138 40.4288 40.4289Z" fill="white"/>
<path d="M45.6026 39.732L45.5964 39.7258L45.5933 39.7289L45.6026 39.7351V39.732Z" fill="white"/>
</g>
<defs>
<clipPath id="clip0_1398_1393">
<rect width="56" height="56" rx="8" fill="white"/>
</clipPath>
</defs>
</svg>