<svg xmlns:xlink="http://www.w3.org/1999/xlink" xmlns="http://www.w3.org/2000/svg" width="56" height="56" viewBox="0 0 56 56" fill="none">
<g clip-path="url(#clip0_1347_153)">
<rect width="56" height="56" fill="url(#paint0_linear_1347_153)"/>
<path d="M28 56C43.464 56 56 43.464 56 28C56 12.536 43.464 0 28 0C12.536 0 0 12.536 0 28C0 43.464 12.536 56 28 56Z" fill="url(#paint1_linear_1347_153)"/>
<mask id="mask0_1347_153" style="mask-type:luminance" maskUnits="userSpaceOnUse" x="11" y="11" width="34" height="34">
<path d="M11 11H45V45H11V11Z" fill="white"/>
</mask>
<g mask="url(#mask0_1347_153)">
<path fill-rule="evenodd" clip-rule="evenodd" d="M24.924 24.748L31.132 24.739L31.206 18.374L29.097 20.224C16.429 10.217 2.69103 29.055 17.365 37.951C16.9 36.6851 16.6986 35.3376 16.773 33.991C8.98603 26.127 19.539 16.431 26.873 22.445L24.924 24.748Z" fill="white"/>
<path fill-rule="evenodd" clip-rule="evenodd" d="M31.075 31.215L24.867 31.224L24.793 37.59L26.902 35.74C39.57 45.747 53.308 26.909 38.634 18.013C39.099 19.2789 39.3004 20.6265 39.226 21.973C47.013 29.837 36.46 39.533 29.126 33.519L31.078 31.219L31.075 31.215Z" fill="white"/>
<path fill-rule="evenodd" clip-rule="evenodd" d="M31.222 24.894L31.231 31.102L37.596 31.176L35.746 29.067C45.753 16.402 26.915 2.66001 18.02 17.335C19.2859 16.87 20.6335 16.6686 21.98 16.743C29.844 8.95601 39.54 19.509 33.526 26.843L31.226 24.891L31.222 24.894Z" fill="white"/>
<path fill-rule="evenodd" clip-rule="evenodd" d="M24.781 31.106L24.772 24.898L18.407 24.824L20.257 26.933C10.25 39.601 29.088 53.34 37.984 38.666C36.7181 39.131 35.3706 39.3325 34.024 39.258C26.16 47.045 16.464 36.492 22.478 29.158L24.778 31.11L24.781 31.106Z" fill="white"/>
</g>
</g>
<defs>
<linearGradient id="paint0_linear_1347_153" x1="9.968" y1="49.784" x2="41.384" y2="8.568" gradientUnits="userSpaceOnUse">
<stop stop-color="#006DCB"/>
<stop offset="1" stop-color="#0B9DF4"/>
</linearGradient>
<linearGradient id="paint1_linear_1347_153" x1="9.968" y1="49.784" x2="41.384" y2="8.568" gradientUnits="userSpaceOnUse">
<stop stop-color="#006DCB"/>
<stop offset="1" stop-color="#0B9DF4"/>
</linearGradient>
<clipPath id="clip0_1347_153">
<rect width="56" height="56" rx="8" fill="white"/>
</clipPath>
</defs>
</svg>