<svg xmlns:xlink="http://www.w3.org/1999/xlink" xmlns="http://www.w3.org/2000/svg" width="56" height="56" viewBox="0 0 56 56" fill="none">
<g clip-path="url(#clip0_1398_1446)">
<rect width="56" height="56" rx="8" fill="url(#paint0_linear_1398_1446)"/>
<path d="M28 56C43.464 56 56 43.464 56 28C56 12.536 43.464 0 28 0C12.536 0 0 12.536 0 28C0 43.464 12.536 56 28 56Z" fill="url(#paint1_linear_1398_1446)"/>
<path fill-rule="evenodd" clip-rule="evenodd" d="M28.002 10.0019C32.7759 10.0019 37.3542 11.8985 40.7299 15.2741C44.1055 18.6498 46.002 23.228 46.002 28.0019C46.002 32.7758 44.1055 37.3543 40.7299 40.7299C37.3542 44.1056 32.7759 46.0019 28.002 46.0019C23.2281 46.0019 18.6497 44.1056 15.274 40.7299C11.8984 37.3543 10.002 32.7758 10.002 28.0019C10.002 23.228 11.8984 18.6498 15.274 15.2741C18.6497 11.8985 23.2281 10.0019 28.002 10.0019ZM14.42 28.0141C17.9749 28.1524 21.3469 29.6266 23.8624 32.1423C26.3779 34.658 27.8519 38.0299 27.99 41.5849H28.0139C28.152 38.0301 29.6258 34.6582 32.1412 32.1425C34.6565 29.6268 38.0282 28.1527 41.5829 28.0141V27.9909C38.0282 27.8523 34.6565 26.3782 32.1412 23.8625C29.6258 21.3468 28.152 17.9749 28.0139 14.4201H27.99C27.8517 17.975 26.3776 21.3468 23.8621 23.8625C21.3466 26.3782 17.9748 27.8524 14.42 27.9909V28.0141ZM26.078 41.4489C25.9096 38.4479 24.6416 35.6141 22.5162 33.4887C20.3908 31.3633 17.557 30.0953 14.556 29.9269C14.618 30.3616 14.7 30.7889 14.802 31.2089C17.3787 31.4288 19.7948 32.5523 21.6235 34.3808C23.4522 36.2093 24.5759 38.6254 24.796 41.2021C25.216 41.3041 25.6433 41.3856 26.078 41.447V41.4489ZM41.447 29.9269C38.4459 30.0953 35.6121 31.3633 33.4867 33.4887C31.3613 35.6141 30.0933 38.4479 29.925 41.4489C30.3616 41.3869 30.791 41.3039 31.213 41.1999C31.4331 38.6247 32.5559 36.2101 34.3832 34.3823C36.2105 32.5544 38.6248 31.4308 41.2 31.2099C41.3026 30.7872 41.385 30.359 41.447 29.925V29.9269ZM14.556 26.079C17.5568 25.9104 20.3904 24.6424 22.5156 22.517C24.6408 20.3917 25.9086 17.5579 26.077 14.5571C23.4921 14.9289 21.069 16.0371 19.097 17.7492C17.1251 19.4613 15.6879 21.705 14.957 24.2121C17.3253 23.9623 19.5362 22.9073 21.2202 21.2233C22.9042 19.5394 23.9592 17.3283 24.209 14.9599C24.403 14.9029 24.598 14.8519 24.796 14.8039C24.5758 17.3807 23.452 19.7969 21.6231 21.6254C19.7942 23.454 17.3778 24.5774 14.801 24.7971C14.6996 25.2151 14.618 25.6418 14.556 26.0771V26.079ZM29.927 14.5571C30.0953 17.5579 31.3631 20.3917 33.4883 22.517C35.6135 24.6424 38.4471 25.9104 41.448 26.079C41.386 25.6444 41.304 25.2171 41.202 24.7971C38.6267 24.5757 36.2124 23.4519 34.3849 21.624C32.5575 19.796 31.4345 17.3814 31.214 14.8061C30.792 14.7014 30.3626 14.6175 29.926 14.5549L29.927 14.5571ZM31.801 14.957C32.0509 17.3241 33.1052 19.5338 34.788 21.2172C36.4707 22.9007 38.68 23.956 41.047 24.207C40.4066 22.0131 39.2239 20.0159 37.6082 18.3996C35.9924 16.7833 33.9956 15.6 31.802 14.9589L31.801 14.957ZM31.801 41.04C32.0511 38.6732 33.1054 36.4639 34.7879 34.7807C36.4704 33.0975 38.6793 32.0421 41.046 31.791C40.4063 33.9853 39.2241 35.9832 37.6084 37.6C35.9928 39.2169 33.9959 40.4006 31.802 41.0419L31.801 41.04ZM24.3549 41.0839L24.209 41.041C23.9592 38.6726 22.9042 36.4617 21.2202 34.7778C19.5362 33.0938 17.3253 32.0388 14.957 31.789C15.6047 34.0094 16.8078 36.028 18.4525 37.6542C20.0973 39.2804 22.1294 40.4604 24.357 41.0829L24.3549 41.0839ZM28.002 13.8681C29.8579 13.8681 31.6956 14.2337 33.4102 14.944C35.1248 15.6544 36.6826 16.6955 37.9948 18.008C39.3069 19.3205 40.3477 20.8787 41.0575 22.5934C41.7674 24.3082 42.1325 26.146 42.132 28.0019C42.1321 29.8576 41.7667 31.6953 41.0566 33.4099C40.3465 35.1244 39.3056 36.6821 37.9934 37.9943C36.6812 39.3065 35.1233 40.3475 33.4088 41.0576C31.6943 41.7677 29.8567 42.1331 28.0009 42.133C26.1452 42.1331 24.3076 41.7677 22.5931 41.0576C20.8786 40.3475 19.3208 39.3065 18.0085 37.9943C16.6963 36.6821 15.6554 35.1244 14.9453 33.4099C14.2352 31.6953 13.8698 29.8576 13.87 28.0019C13.8697 26.146 14.2351 24.3083 14.9452 22.5937C15.6553 20.8791 16.6963 19.3212 18.0086 18.009C19.3209 16.6967 20.8789 15.6557 22.5936 14.9457C24.3083 14.2357 26.1461 13.8706 28.002 13.871V13.8681ZM28.002 12.6169C32.0812 12.6171 35.9932 14.2378 38.8777 17.1223C41.7621 20.0067 43.3827 23.9188 43.383 27.998C43.3832 30.0181 42.9856 32.0183 42.2127 33.8847C41.4399 35.7511 40.307 37.4471 38.8787 38.8757C37.4505 40.3042 35.7548 41.4374 33.8885 42.2106C32.0223 42.9838 30.022 43.3819 28.002 43.382C23.9226 43.3818 20.0104 41.7611 17.1259 38.8764C14.2414 35.9917 12.621 32.0793 12.621 27.9999C12.6212 23.9207 14.2418 20.0086 17.1263 17.1242C20.0107 14.2398 23.9227 12.6193 28.002 12.6191" fill="url(#paint2_linear_1398_1446)"/>
</g>
<defs>
<linearGradient id="paint0_linear_1398_1446" x1="28" y1="0" x2="28" y2="56" gradientUnits="userSpaceOnUse">
<stop stop-color="#03282B"/>
<stop offset="1" stop-color="#056269"/>
</linearGradient>
<linearGradient id="paint1_linear_1398_1446" x1="28" y1="0" x2="28" y2="56" gradientUnits="userSpaceOnUse">
<stop stop-color="#03282B"/>
<stop offset="1" stop-color="#056269"/>
</linearGradient>
<linearGradient id="paint2_linear_1398_1446" x1="46.002" y1="10.0019" x2="16.986" y2="44.9579" gradientUnits="userSpaceOnUse">
<stop stop-color="white"/>
<stop offset="1" stop-color="#E8A71B"/>
</linearGradient>
<clipPath id="clip0_1398_1446">
<rect width="56" height="56" rx="8" fill="white"/>
</clipPath>
</defs>
</svg>