<svg xmlns:xlink="http://www.w3.org/1999/xlink" xmlns="http://www.w3.org/2000/svg" width="56" height="56" viewBox="0 0 56 56" fill="none">
<g clip-path="url(#clip0_1347_199)">
<rect width="56" height="56" rx="8" fill="#ED1D24"/>
<rect width="56" height="56" fill="#ED1D24"/>
<path fill-rule="evenodd" clip-rule="evenodd" d="M19.8351 20L21.2798 22.3579H29.4985C31.0832 22.3579 32.0347 23.1989 32.0347 24.945C32.0347 26.6912 31.1563 27.6632 29.4985 27.6632H24.6989L25.9349 29.7427H28.9688L31.2321 33.6725H34.1696L31.5692 29.3988C33.281 28.7314 34.298 27.1411 34.298 24.9123C34.298 21.902 32.5227 20 29.4985 20H19.8351ZM34.3462 20L35.7106 22.3579H39.5631C41.9491 22.3579 43.6885 24.332 43.6885 26.8772C43.6885 29.4231 41.9491 31.2982 39.5631 31.2982H34.3783L35.7106 33.6561H39.5631C43.2962 33.6561 46 30.6819 46 26.7626C46 22.8426 43.2962 20 39.5631 20H34.3462ZM17.7965 20.0982C17.279 20.0982 16.9182 20.412 16.6408 20.8842L9 34H11.6807L17.7002 23.4877L22.7245 31.9205H14.538L13.3983 34H26.6733L18.9202 20.8842C18.6428 20.412 18.314 20.0982 17.7965 20.0982Z" fill="white"/>
</g>
<defs>
<clipPath id="clip0_1347_199">
<rect width="56" height="56" rx="8" fill="white"/>
</clipPath>
</defs>
</svg>