<svg xmlns:xlink="http://www.w3.org/1999/xlink" xmlns="http://www.w3.org/2000/svg" width="56" height="56" viewBox="0 0 56 56" fill="none">
<rect width="56" height="56" rx="8" fill="#0B1F83"/>
<path d="M28 56C43.464 56 56 43.464 56 28C56 12.536 43.464 0 28 0C12.536 0 0 12.536 0 28C0 43.464 12.536 56 28 56Z" fill="#0B1F83"/>
<mask id="mask0_1398_1427" style="mask-type:luminance" maskUnits="userSpaceOnUse" x="12" y="12" width="32" height="32">
<path d="M44 12H12V44H44V12Z" fill="white"/>
</mask>
<g mask="url(#mask0_1398_1427)">
<path fill-rule="evenodd" clip-rule="evenodd" d="M35.6409 35.562C34.7999 36.381 34.1609 37.053 33.3279 37.881C32.2539 38.948 29.1479 41.649 28.7279 42.881C34.3279 45.437 35.9349 43.016 38.7859 40.181C41.8129 37.166 44.8269 35.211 43.7859 30.734C43.2999 28.645 41.8029 27.525 40.7439 26.464C39.4499 25.164 34.4749 19.723 33.1039 19.414C31.0899 18.961 29.2939 21.231 28.7369 22.114C30.2673 23.8391 31.8854 25.4842 33.5849 27.043C34.6849 28.151 37.5589 30.299 37.4849 32.574C37.4199 34.398 36.5209 34.705 35.6409 35.562Z" fill="white"/>
<path fill-rule="evenodd" clip-rule="evenodd" d="M22.1819 27.28C23.9308 25.7644 25.5868 24.1448 27.1409 22.43C28.9799 20.592 30.6019 18.323 32.6519 18.446C35.4389 18.614 40.6579 26.316 42.9929 27.296C45.2929 21.556 43.2159 20.133 40.2729 17.179C37.7289 14.624 35.4319 11.23 30.8519 12.248C28.3969 12.794 24.7259 17.148 22.9239 18.948C22.1029 19.767 19.8129 21.701 19.5399 22.902C19.4197 23.3944 19.4257 23.9091 19.5573 24.3986C19.689 24.888 19.942 25.3363 20.2929 25.702C20.5359 25.978 20.8629 26.302 21.1369 26.558C21.7449 27.135 21.4669 26.988 22.1819 27.28Z" fill="#CF352F"/>
<path fill-rule="evenodd" clip-rule="evenodd" d="M13.122 28.649C10.456 33.985 13.013 35.817 15.862 38.661C19 41.792 20.79 44.726 25.25 43.711C27.386 43.225 28.468 41.765 29.55 40.683C30.875 39.355 36.25 34.483 36.55 33.017C36.913 31.253 35.333 29.323 33.887 28.654C32.173 30.254 30.656 31.862 28.987 33.533C27.881 34.633 25.707 37.502 23.42 37.442C20.607 37.368 15.606 30.035 13.128 28.65L13.122 28.649Z" fill="white"/>
<path fill-rule="evenodd" clip-rule="evenodd" d="M27.33 33.806C25.758 32.536 24.03 30.535 22.542 29.058C17.081 23.618 17.362 23.393 22.742 18.026C24.3685 16.5579 25.9002 14.988 27.328 13.326C26.072 12.026 23.628 11.696 21.516 12.412C19.595 13.065 15.146 17.701 13.76 19.284C13.1096 20.0634 12.6371 20.9754 12.3756 21.9562C12.1141 22.9371 12.0699 23.9632 12.246 24.963C12.67 27.263 14.168 28.163 15.269 29.263C16.548 30.54 17.65 31.641 18.928 32.919C20.72 34.71 23.061 38.328 25.597 35.755C26.2562 35.1815 26.8399 34.5266 27.334 33.806H27.33Z" fill="white"/>
</g>
</svg>