<svg xmlns:xlink="http://www.w3.org/1999/xlink" xmlns="http://www.w3.org/2000/svg" width="56" height="56" viewBox="0 0 56 56" fill="none">
<rect width="56" height="56" rx="8" fill="url(#paint0_linear_1398_1407)"/>
<mask id="mask0_1398_1407" style="mask-type:luminance" maskUnits="userSpaceOnUse" x="12" y="12" width="32" height="32">
<path d="M44 12H12V44H44V12Z" fill="white"/>
</mask>
<g mask="url(#mask0_1398_1407)">
<path fill-rule="evenodd" clip-rule="evenodd" d="M28.052 36.925L31.786 40.687C29.3283 41.4616 26.6914 41.4578 24.236 40.676L28.052 36.925ZM40.691 24.254C41.468 26.709 41.4659 29.3443 40.685 31.798L36.929 27.991L40.691 24.254ZM15.349 31.776C14.5439 29.325 14.5467 26.6803 15.357 24.231L19.119 28.043L15.349 31.776ZM25.071 34.128C23.6576 33.475 22.515 32.3512 21.8386 30.9488C21.1622 29.5464 20.9941 27.9526 21.363 26.44C22.732 20.635 30.785 19.372 31.108 24.04C31.408 28.308 26.496 26.715 24.74 29.64C23.656 31.446 24.298 32.799 25.07 34.131L25.071 34.128ZM30.971 21.907C37.266 24.433 35.471 35.071 28.014 34.829C24.54 34.716 23.303 29.845 27.654 28.556C31.497 27.414 33.002 25.654 30.974 21.902L30.971 21.907ZM24.262 15.326C26.7124 14.5639 29.3365 14.5639 31.787 15.326L28.009 19.115L24.262 15.326ZM28.024 14.656C27.1301 13.9244 26.1546 13.2986 25.117 12.791C23.2475 11.9869 21.1671 11.8131 19.1901 12.296C17.2131 12.7788 15.447 13.8921 14.1587 15.4675C12.8704 17.0429 12.1299 18.9949 12.0492 21.0283C11.9684 23.0618 12.5517 25.0664 13.711 26.739C14.024 27.196 14.372 27.517 14.667 28.015C13.9438 28.9139 13.3163 29.8858 12.795 30.915C12.1828 32.3333 11.9311 33.8811 12.0623 35.4203C12.1934 36.9596 12.7034 38.4424 13.5467 39.7367C14.3901 41.031 15.5405 42.0966 16.8956 42.8383C18.2507 43.5801 19.7682 43.9751 21.313 43.988C24.68 44.002 26.069 42.761 28.024 41.373C28.581 41.703 28.853 42.027 29.412 42.402C31.2125 43.6178 33.3803 44.1684 35.5427 43.9591C37.7052 43.7497 39.7271 42.7936 41.261 41.255C42.1292 40.4048 42.8183 39.3893 43.2877 38.2685C43.7571 37.1477 43.9972 35.9442 43.994 34.729C44.013 30.94 42.494 29.863 41.377 28.018C42.761 26.03 44.008 24.718 43.994 21.307C43.9791 18.8538 42.9993 16.5051 41.2665 14.7686C39.5337 13.032 37.1871 12.0472 34.734 12.027C31.249 12.001 30.116 13.263 28.025 14.659L28.024 14.656Z" fill="white"/>
<path fill-rule="evenodd" clip-rule="evenodd" d="M27.617 31.041C26.627 31.541 27.481 32.996 28.455 32.448C29.222 32.02 28.861 30.411 27.617 31.041Z" fill="white"/>
<path fill-rule="evenodd" clip-rule="evenodd" d="M27.6481 23.616C26.5211 24.216 27.6201 25.708 28.5881 24.944C29.1411 24.509 28.7661 23.022 27.6481 23.616Z" fill="white"/>
</g>
<defs>
<linearGradient id="paint0_linear_1398_1407" x1="14.112" y1="47.04" x2="47.208" y2="1.47231e-06" gradientUnits="userSpaceOnUse">
<stop stop-color="#044B3F"/>
<stop offset="1" stop-color="#E39D58"/>
</linearGradient>
</defs>
</svg>