<svg xmlns:xlink="http://www.w3.org/1999/xlink" xmlns="http://www.w3.org/2000/svg" width="56" height="56" viewBox="0 0 56 56" fill="none">
<g clip-path="url(#clip0_1347_142)">
<rect width="56" height="56" fill="#21CDA8"/>
<path d="M28 56C43.464 56 56 43.464 56 28C56 12.536 43.464 0 28 0C12.536 0 0 12.536 0 28C0 43.464 12.536 56 28 56Z" fill="#21CDA8"/>
<path d="M37.5581 12.025H21.9411C20.9961 12.0234 20.0625 12.2319 19.208 12.6354C18.3535 13.0389 17.5993 13.6273 17.0001 14.358L16.9641 14.4L16.9281 14.442L16.9001 14.484L16.8611 14.525L16.8251 14.567C16.8141 14.581 16.8021 14.595 16.7891 14.609L16.7531 14.651L16.7171 14.693L16.6811 14.735L16.6451 14.777L16.6101 14.825L16.5741 14.867C16.5631 14.881 16.5511 14.895 16.5381 14.909L16.5001 14.947L16.4641 14.989L16.4281 15.031L16.3921 15.073L16.3561 15.115L16.3201 15.157L16.2841 15.199C16.2731 15.213 16.2611 15.227 16.2481 15.241L16.2121 15.283L16.1791 15.325L16.1431 15.367L16.1071 15.409L16.0711 15.451L16.0351 15.493L16.0001 15.537C15.9891 15.551 15.9771 15.565 15.9641 15.579L15.9281 15.625L15.8921 15.667L15.8561 15.709C15.8451 15.723 15.8331 15.737 15.8201 15.751L15.7841 15.793L15.7481 15.835L15.7121 15.877L15.6761 15.919L15.6401 15.961C15.6291 15.975 15.6171 15.989 15.6041 16.003L15.5681 16.045L15.5321 16.087C15.5211 16.101 15.5091 16.115 15.4961 16.129L15.4601 16.171C15.4491 16.185 15.4371 16.199 15.4241 16.213L15.3881 16.255C15.3771 16.269 15.3651 16.283 15.3521 16.297L15.3161 16.339L15.2801 16.381C15.2691 16.395 15.2571 16.409 15.2441 16.423L15.2081 16.465L15.1721 16.507C15.1611 16.521 15.1491 16.535 15.1361 16.549L15.1001 16.589L15.0641 16.631L15.0281 16.673L15.0001 16.716L14.9641 16.758C14.9531 16.772 14.9411 16.786 14.9281 16.8L14.8921 16.842L14.8561 16.884L14.8161 16.925L14.7801 16.967L14.7441 17.009L14.7081 17.051C14.6971 17.065 14.6851 17.079 14.6721 17.093L14.6361 17.135L14.6001 17.179L14.5651 17.225L14.5291 17.267L14.4931 17.309L14.4571 17.351L14.4211 17.393C14.4101 17.407 14.3981 17.421 14.3851 17.435L14.3491 17.477L14.3131 17.519L14.2771 17.561L14.2411 17.603L14.2051 17.645C14.1941 17.659 14.1821 17.673 14.1691 17.687L14.1351 17.725L14.1001 17.768C14.0891 17.782 14.0771 17.796 14.0641 17.81L14.0281 17.852C14.0171 17.866 14.0051 17.88 13.9921 17.894L13.9561 17.936C13.9451 17.95 13.9331 17.964 13.9201 17.978L13.8841 18.025L13.8481 18.067L13.8121 18.109L13.7761 18.151L13.7401 18.193C13.7291 18.207 13.7171 18.221 13.7041 18.235L13.6681 18.277L13.6321 18.319L13.6001 18.358L13.5641 18.4L13.5281 18.442L13.4921 18.484L13.4531 18.525L13.4171 18.567C12.4945 19.6754 11.9927 21.0739 12.0001 22.516V37.744C12.0001 39.3966 12.6566 40.9814 13.8251 42.15C14.9936 43.3185 16.5785 43.975 18.2311 43.975H33.4591C34.9221 43.9778 36.3389 43.4631 37.4591 42.522C37.4731 42.511 37.4871 42.499 37.5011 42.486C37.5151 42.473 37.5291 42.463 37.5431 42.45C37.5571 42.437 37.5711 42.427 37.5851 42.414C37.5991 42.401 37.6131 42.391 37.6271 42.378C37.6411 42.365 37.6551 42.355 37.6691 42.342C37.6831 42.329 37.6971 42.319 37.7111 42.306C37.7251 42.293 37.7391 42.283 37.7531 42.27C37.7671 42.257 37.7811 42.247 37.7951 42.234C37.8091 42.221 37.8231 42.211 37.8371 42.198C37.8511 42.185 37.8651 42.175 37.8791 42.162C37.8931 42.149 37.9071 42.139 37.9211 42.126C37.9351 42.113 37.9491 42.103 37.9631 42.09C37.9771 42.077 37.9911 42.067 38.0051 42.054C38.0191 42.041 38.0331 42.031 38.0471 42.018C38.0611 42.005 38.0751 41.995 38.0891 41.982C38.1031 41.969 38.1171 41.959 38.1311 41.946C38.1451 41.933 38.1591 41.923 38.1731 41.91C38.1871 41.897 38.2011 41.887 38.2151 41.874C38.2291 41.861 38.2431 41.851 38.2571 41.838C38.2711 41.825 38.2851 41.815 38.2991 41.802C38.3131 41.789 38.3271 41.779 38.3411 41.766C38.3551 41.753 38.3691 41.743 38.3831 41.73C38.3971 41.717 38.4111 41.707 38.4251 41.694C38.4391 41.681 38.4531 41.671 38.4671 41.658C38.4811 41.645 38.4951 41.635 38.5091 41.622C38.5231 41.609 38.5371 41.599 38.5511 41.586C38.5651 41.573 38.5791 41.563 38.5931 41.55C38.6071 41.537 38.6211 41.527 38.6351 41.514C38.6491 41.501 38.6631 41.491 38.6771 41.478C38.6911 41.465 38.7051 41.455 38.7191 41.442C38.7331 41.429 38.7471 41.419 38.7611 41.406C38.7751 41.393 38.7891 41.383 38.8031 41.37C38.8171 41.357 38.8311 41.347 38.8451 41.334C38.8591 41.321 38.8731 41.311 38.8871 41.298C38.9011 41.285 38.9151 41.275 38.9291 41.262C38.9431 41.249 38.9571 41.239 38.9711 41.226C38.9851 41.213 38.9991 41.203 39.0131 41.19C39.0271 41.177 39.0411 41.167 39.0551 41.154C39.0691 41.141 39.0831 41.131 39.0971 41.118C39.1111 41.105 39.1251 41.095 39.1391 41.082C39.1531 41.069 39.1671 41.059 39.1811 41.046C39.1951 41.033 39.2091 41.023 39.2231 41.01C39.2371 40.997 39.2511 40.987 39.2651 40.974C39.2791 40.961 39.2931 40.951 39.3071 40.938C39.3211 40.925 39.3351 40.915 39.3491 40.902C39.3631 40.889 39.3771 40.879 39.3911 40.866C39.4051 40.853 39.4191 40.843 39.4331 40.83C39.4471 40.817 39.4611 40.807 39.4751 40.794C39.4891 40.781 39.5031 40.771 39.5171 40.758C39.5311 40.745 39.5451 40.735 39.5591 40.722C39.5731 40.709 39.5871 40.699 39.6011 40.686C39.6151 40.673 39.6291 40.663 39.6431 40.65C39.6571 40.637 39.6711 40.627 39.6851 40.614C39.6991 40.601 39.7131 40.591 39.7271 40.578C39.7411 40.565 39.7551 40.555 39.7691 40.542C39.7831 40.529 39.7971 40.519 39.8111 40.506C39.8251 40.493 39.8391 40.483 39.8531 40.47C39.8671 40.457 39.8811 40.447 39.8951 40.434C39.9091 40.421 39.9231 40.411 39.9371 40.398C39.9511 40.385 39.9651 40.375 39.9791 40.362C39.9931 40.349 40.0071 40.339 40.0211 40.326C40.0351 40.313 40.0491 40.303 40.0631 40.29C40.0771 40.277 40.0911 40.267 40.1051 40.254C40.1191 40.241 40.1331 40.231 40.1471 40.218C40.1611 40.205 40.1751 40.195 40.1891 40.182C40.2031 40.169 40.2171 40.159 40.2311 40.146C40.2451 40.133 40.2591 40.123 40.2731 40.11C40.2871 40.097 40.3011 40.087 40.3151 40.074C40.3291 40.061 40.3431 40.051 40.3571 40.038C40.3711 40.025 40.3851 40.015 40.3991 40.002C40.4131 39.989 40.4271 39.979 40.4411 39.966C40.4551 39.953 40.4691 39.943 40.4831 39.93C40.4971 39.917 40.5111 39.907 40.5251 39.894C40.5391 39.881 40.5531 39.871 40.5671 39.858C40.5811 39.845 40.5951 39.835 40.6091 39.822C40.6231 39.809 40.6371 39.799 40.6511 39.786C40.6651 39.773 40.6791 39.763 40.6931 39.75C40.7071 39.737 40.7211 39.727 40.7351 39.714C40.7491 39.701 40.7631 39.691 40.7771 39.678C40.7911 39.665 40.8051 39.655 40.8191 39.642C40.8331 39.629 40.8471 39.619 40.8611 39.606C40.8751 39.593 40.8891 39.583 40.9031 39.57C40.9171 39.557 40.9311 39.547 40.9451 39.534C40.9591 39.521 40.9731 39.511 40.9871 39.498C41.0011 39.485 41.0151 39.475 41.0291 39.462C41.0431 39.449 41.0571 39.439 41.0711 39.426C41.0851 39.413 41.0991 39.403 41.1131 39.39C41.1271 39.377 41.1411 39.367 41.1551 39.354C41.1691 39.341 41.1831 39.331 41.1971 39.318C41.2111 39.305 41.2251 39.295 41.2391 39.282C41.2531 39.269 41.2671 39.259 41.2811 39.246C41.2951 39.233 41.3091 39.223 41.3231 39.21C41.3371 39.197 41.3511 39.187 41.3651 39.174C41.3791 39.161 41.3931 39.151 41.4071 39.138C41.4211 39.125 41.4351 39.115 41.4491 39.102C41.4631 39.089 41.4771 39.079 41.4911 39.066C41.5051 39.053 41.5191 39.043 41.5331 39.03C41.5471 39.017 41.5611 39.007 41.5751 38.994C41.5891 38.981 41.6031 38.971 41.6171 38.958C41.6311 38.945 41.6451 38.935 41.6591 38.922C42.3888 38.3251 42.9772 37.574 43.382 36.7226C43.7867 35.8712 43.9978 34.9407 44.0001 33.998V18.415C43.9998 16.7204 43.3265 15.0952 42.1282 13.8969C40.9299 12.6986 39.3047 12.0253 37.6101 12.025H37.5581ZM41.8181 34.034C41.8181 35.1638 41.3693 36.2474 40.5704 37.0463C39.7715 37.8452 38.6879 38.294 37.5581 38.294H21.9391C20.8093 38.294 19.7257 37.8452 18.9268 37.0463C18.1279 36.2474 17.6791 35.1638 17.6791 34.034V18.415C17.6791 17.2852 18.1279 16.2016 18.9268 15.4027C19.7257 14.6038 20.8093 14.155 21.9391 14.155H37.5601C38.6899 14.155 39.7735 14.6038 40.5724 15.4027C41.3713 16.2016 41.8201 17.2852 41.8201 18.415V34.035L41.8181 34.034Z" fill="#323840"/>
<path d="M38 14H21C18.7909 14 17 15.7909 17 18V35C17 37.2091 18.7909 39 21 39H38C40.2091 39 42 37.2091 42 35V18C42 15.7909 40.2091 14 38 14Z" fill="white"/>
<path d="M38.087 19.125C38.1352 19.125 38.1815 19.1442 38.2157 19.1783C38.2498 19.2124 38.269 19.2587 38.269 19.307V33.142C38.269 33.1903 38.2498 33.2366 38.2157 33.2707C38.1815 33.3048 38.1352 33.324 38.087 33.324H35.612C35.5637 33.324 35.5174 33.3048 35.4833 33.2707C35.4492 33.2366 35.43 33.1903 35.43 33.142V22.93C35.43 22.788 35.31 22.713 35.154 22.774C35.0796 22.8107 35.0139 22.8627 34.9612 22.9267C34.9084 22.9906 34.8698 23.065 34.848 23.145C34.8466 23.1503 34.8439 23.1552 34.84 23.159L31.575 32.239V32.253C31.4973 32.5592 31.3197 32.8307 31.0702 33.0245C30.8208 33.2183 30.5139 33.3234 30.198 33.323H29.311C28.995 33.3231 28.688 33.2179 28.4386 33.0239C28.1892 32.8299 28.0116 32.5583 27.934 32.252C27.9346 32.2474 27.9346 32.2426 27.934 32.238L24.661 23.138C24.6377 23.0593 24.5986 22.9862 24.5459 22.9233C24.4933 22.8603 24.4283 22.8088 24.355 22.772C24.327 22.7571 24.2957 22.7496 24.2641 22.75C24.2324 22.7505 24.2013 22.7589 24.1738 22.7746C24.1463 22.7903 24.1231 22.8126 24.1066 22.8396C24.09 22.8666 24.0805 22.8974 24.079 22.929V33.141C24.079 33.1893 24.0598 33.2356 24.0257 33.2697C23.9915 33.3038 23.9452 33.323 23.897 33.323H21.412C21.3637 33.323 21.3174 33.3038 21.2833 33.2697C21.2492 33.2356 21.23 33.1893 21.23 33.141V19.307C21.23 19.2587 21.2492 19.2124 21.2833 19.1783C21.3174 19.1442 21.3637 19.125 21.412 19.125H24.893C25.1663 19.126 25.4335 19.2058 25.6626 19.355C25.8916 19.5042 26.0726 19.7164 26.184 19.966L26.195 19.972L29.582 29.381C29.594 29.4162 29.6167 29.4467 29.6469 29.4684C29.6771 29.49 29.7133 29.5016 29.7505 29.5016C29.7876 29.5016 29.8239 29.49 29.8541 29.4684C29.8843 29.4467 29.907 29.4162 29.919 29.381L33.256 20.106C33.265 20.079 33.275 20.051 33.286 20.026L33.305 19.971C33.4166 19.7195 33.5989 19.5058 33.8297 19.356C34.0605 19.2062 34.3298 19.1266 34.605 19.127H38.086L38.087 19.125Z" fill="#323840"/>
</g>
<defs>
<clipPath id="clip0_1347_142">
<rect width="56" height="56" rx="8" fill="white"/>
</clipPath>
</defs>
</svg>