<svg xmlns:xlink="http://www.w3.org/1999/xlink" xmlns="http://www.w3.org/2000/svg" width="56" height="56" viewBox="0 0 56 56" fill="none">
<rect width="56" height="56" rx="8" fill="white"/>
<mask id="mask0_1404_1400" style="mask-type:luminance" maskUnits="userSpaceOnUse" x="0" y="0" width="56" height="56">
<path d="M56 0H0V56H56V0Z" fill="white"/>
</mask>
<g mask="url(#mask0_1404_1400)">
<path d="M28 0C33.5379 0 38.9514 1.64217 43.556 4.71885C48.1605 7.79553 51.7494 12.1685 53.8686 17.2849C55.9879 22.4012 56.5424 28.0311 55.462 33.4625C54.3816 38.894 51.7149 43.8831 47.799 47.799C43.8831 51.7149 38.894 54.3816 33.4625 55.462C28.0311 56.5424 22.4012 55.9879 17.2849 53.8686C12.1685 51.7494 7.79553 48.1605 4.71885 43.556C1.64217 38.9514 0 33.5379 0 28C0 20.5739 2.94999 13.452 8.20101 8.20101C13.452 2.94999 20.5739 0 28 0Z" fill="white"/>
<mask id="mask1_1404_1400" style="mask-type:luminance" maskUnits="userSpaceOnUse" x="10" y="10" width="35" height="34">
<path d="M44.999 10H10.999V44H44.999V10Z" fill="white"/>
</mask>
<g mask="url(#mask1_1404_1400)">
<path fill-rule="evenodd" clip-rule="evenodd" d="M23.891 27.544L24.345 27.563C24.445 27.806 24.477 35.396 24.373 35.997L23.89 35.968V27.544H23.891ZM41.991 27.544L42.501 27.568C42.501 27.984 42.601 35.59 42.433 35.992L41.984 35.999L41.991 27.544ZM40.636 27.544L41.146 27.57C41.146 27.854 41.246 35.631 41.074 35.993L40.632 35.998V27.543L40.636 27.544ZM22.545 27.544L23.055 27.573V35.113C23.055 35.239 23.072 35.523 23.062 35.63C23.028 35.988 23.187 35.994 22.541 35.994L22.545 27.544ZM39.799 35.944C39.586 36.056 26.409 36.121 25.205 36.003V27.58C25.0898 27.5863 24.9743 27.5863 24.859 27.58C24.83 27.58 24.806 27.571 24.78 27.567L24.635 27.523C24.622 27.495 24.588 27.508 24.567 27.496C24.693 25.913 24.34 23.974 24.867 22.552C25.3551 21.3896 26.2707 20.4589 27.425 19.952C26.946 19.426 24.417 19.201 23.849 19.179C23.1659 20.2524 22.702 21.4505 22.484 22.704C22.216 24.298 22.518 25.983 22.348 27.522L21.71 27.544L21.715 35.989L20.98 36.057C20.78 36.472 20.942 37.145 20.865 37.649C20.387 37.639 20.174 37.515 20.091 37.918C20.065 38.045 20.091 38.758 20.091 38.944C20.091 39.944 19.864 40.811 20.369 40.919C20.569 40.962 20.326 40.919 20.529 40.943C20.629 40.953 20.845 40.943 20.957 40.943C28.341 40.866 36.034 40.943 43.457 40.943C43.713 40.943 43.967 40.943 44.224 40.949C44.324 40.949 44.8 40.949 44.843 40.841C45.0264 40.1975 45.066 39.5215 44.959 38.861C44.959 37.679 45.228 37.712 44.177 37.634C44.018 36.052 44.577 36.01 43.34 36.008L43.312 27.536L42.674 27.528C42.718 24.853 42.881 22.782 41.909 20.456C40.9489 18.2927 39.1949 16.5806 37.009 15.673C36.063 15.273 36.595 15.388 36.026 14.703C33.38 11.513 29.034 13.588 28.567 15.527C29.7468 16.0551 30.7995 16.8302 31.654 17.8C31.92 18.069 32.099 18.456 32.417 18.745C35.126 18.972 37.152 19.234 38.872 20.773C39.7078 21.4419 40.2597 22.4021 40.417 23.461C40.5178 24.8126 40.5251 26.1694 40.439 27.522L39.805 27.55V35.95L39.799 35.944Z" fill="#662C10"/>
<path fill-rule="evenodd" clip-rule="evenodd" d="M13.5001 27.569L14.0101 27.558L13.9751 35.99L13.4961 35.997V27.57L13.5001 27.569ZM32.9391 27.569L33.4531 27.545L33.4621 35.977L32.9311 35.951L32.9391 27.569ZM31.5691 35.956C31.6691 34.63 31.4121 28.116 31.6471 27.561H32.1011V35.979L31.5691 35.956ZM14.9201 35.987C14.7816 35.3112 14.757 34.617 14.8471 33.933C14.8471 31.993 14.7771 29.35 14.8471 27.564H15.3471V36.005L14.9201 35.987ZM24.5621 27.496C24.5841 27.508 24.6171 27.496 24.6301 27.523L24.7751 27.567C24.8011 27.567 24.8241 27.577 24.8541 27.58C24.9693 27.5863 25.0848 27.5863 25.2001 27.58V36.004C26.4001 36.122 39.5821 36.057 39.7951 35.945L34.2851 35.952V27.542L33.6571 27.505C33.4471 25.421 33.8571 23.741 33.2911 21.673C32.8906 20.2093 32.123 18.8721 31.0611 17.788C30.538 17.2527 29.9564 16.778 29.3271 16.373C28.9891 16.16 28.7461 16.036 28.3441 15.827C28.0161 15.657 27.5311 15.541 27.3381 15.31C26.9694 14.6808 26.4623 14.1439 25.8551 13.74C25.1421 13.2759 24.3093 13.0296 23.4586 13.0314C22.6079 13.0332 21.7761 13.2829 21.0651 13.75C19.8851 14.527 20.1381 14.727 19.5751 15.327C18.2217 15.9252 16.9842 16.7569 15.9191 17.784C12.4481 21.499 13.6541 24.105 13.2911 27.505L12.6491 27.579L12.6431 35.987C12.0561 36.005 11.8581 35.863 11.8271 36.467C11.8081 36.846 11.8571 37.236 11.8191 37.623L11.0601 37.698C10.9655 38.7296 10.9738 39.7681 11.0851 40.798C11.2461 41.023 12.8851 40.93 13.2171 40.93C14.6931 40.93 18.7291 41.02 19.6621 40.907C19.6341 40.139 19.6551 39.368 19.6511 38.599C19.6511 37.653 19.5291 37.39 20.4611 37.184L20.4731 36.001L16.1891 35.988V27.547L15.5631 27.518C15.4785 26.142 15.4872 24.7618 15.5891 23.387C16.4291 17.323 30.3891 17.199 31.3481 23.35C31.4667 24.7356 31.4814 26.1282 31.3921 27.516L30.7461 27.529L30.7681 35.966L25.2681 35.971L25.2231 27.52L24.5581 27.494L24.5621 27.496Z" fill="#D7A85C"/>
</g>
</g>
</svg>