<svg xmlns:xlink="http://www.w3.org/1999/xlink" xmlns="http://www.w3.org/2000/svg" width="56" height="56" viewBox="0 0 56 56" fill="none">
<g clip-path="url(#clip0_1404_1426)">
<rect width="56" height="56" rx="8" fill="url(#paint0_linear_1404_1426)"/>
<mask id="mask0_1404_1426" style="mask-type:luminance" maskUnits="userSpaceOnUse" x="0" y="0" width="56" height="56">
<path d="M56 0H0V56H56V0Z" fill="white"/>
</mask>
<g mask="url(#mask0_1404_1426)">
<path d="M28 0C33.5379 0 38.9514 1.64217 43.556 4.71885C48.1605 7.79553 51.7494 12.1685 53.8686 17.2849C55.9879 22.4012 56.5424 28.0311 55.462 33.4625C54.3816 38.894 51.7149 43.8831 47.799 47.799C43.8831 51.7149 38.894 54.3816 33.4625 55.462C28.0311 56.5424 22.4012 55.9879 17.2849 53.8686C12.1685 51.7494 7.79553 48.1605 4.71885 43.556C1.64217 38.9514 0 33.5379 0 28C0 20.5739 2.94999 13.452 8.20101 8.20101C13.452 2.94999 20.5739 0 28 0Z" fill="url(#paint1_linear_1404_1426)"/>
</g>
<path d="M12.4339 44L12.5339 43.9L16.8469 39.469C14.1866 36.8812 12.5087 33.4491 12.1003 29.7603C11.692 26.0715 12.5787 22.3555 14.6087 19.2486C16.6387 16.1416 19.6856 13.837 23.2277 12.7293C26.7699 11.6216 30.5869 11.7797 34.0253 13.1766C37.4637 14.5735 40.3096 17.1222 42.0756 20.3864C43.8417 23.6506 44.418 27.4272 43.706 31.0696C42.994 34.712 41.0379 37.9935 38.1726 40.3524C35.3074 42.7113 31.7113 44.0008 27.9999 44H12.4339Z" stroke="white" stroke-width="2" stroke-linecap="round" stroke-linejoin="round"/>
<path d="M25.805 24.217H21.582C21.4309 24.2214 21.2804 24.1954 21.1395 24.1404C20.9987 24.0854 20.8704 24.0027 20.7622 23.897C20.654 23.7914 20.5683 23.665 20.51 23.5255C20.4517 23.386 20.4221 23.2362 20.423 23.085V21.985C20.4306 21.6825 20.5559 21.3949 20.7724 21.1834C20.9889 20.972 21.2794 20.8534 21.582 20.853H34.418C34.5683 20.8508 34.7175 20.8782 34.8572 20.9337C34.9968 20.9892 35.1242 21.0717 35.2319 21.1764C35.3397 21.2812 35.4257 21.4062 35.4851 21.5443C35.5445 21.6823 35.576 21.8307 35.578 21.981V23.081C35.5704 23.3835 35.4451 23.6711 35.2286 23.8826C35.0121 24.094 34.7216 24.2126 34.419 24.213H30.219C30.0837 24.2116 29.9532 24.2631 29.8554 24.3565C29.7575 24.4499 29.6999 24.5778 29.695 24.713V26.066C29.695 26.066 31.903 25.486 32.124 25.431C32.2672 25.3889 32.4173 25.3756 32.5657 25.3917C32.7141 25.4078 32.8578 25.4531 32.9886 25.5249C33.1195 25.5967 33.2348 25.6937 33.3281 25.8102C33.4213 25.9268 33.4906 26.0606 33.532 26.204C33.615 26.563 33.725 26.922 33.808 27.253C33.8444 27.398 33.8518 27.5487 33.8299 27.6966C33.8079 27.8444 33.7571 27.9865 33.6801 28.1147C33.6032 28.2429 33.5018 28.3546 33.3817 28.4436C33.2615 28.5325 33.125 28.5969 32.98 28.633L32.594 28.771L29.694 29.544V31.062C30.494 30.841 31.323 30.62 32.123 30.427C32.2662 30.3849 32.4163 30.3716 32.5647 30.3877C32.7131 30.4038 32.8568 30.4491 32.9876 30.5209C33.1185 30.5927 33.2338 30.6897 33.3271 30.8062C33.4203 30.9228 33.4896 31.0566 33.531 31.2C33.641 31.559 33.724 31.918 33.807 32.249C33.8434 32.394 33.8508 32.5447 33.8289 32.6926C33.8069 32.8404 33.7561 32.9825 33.6791 33.1107C33.6022 33.2389 33.5008 33.3506 33.3807 33.4396C33.2605 33.5285 33.124 33.5929 32.979 33.629L29.666 34.512V37.466C29.6656 37.7686 29.547 38.0591 29.3356 38.2756C29.1241 38.4921 28.8365 38.6174 28.534 38.625H27.434C27.2835 38.6236 27.1347 38.5924 26.9962 38.5333C26.8578 38.4742 26.7324 38.3884 26.6272 38.2807C26.522 38.173 26.4391 38.0456 26.3833 37.9058C26.3275 37.766 26.2999 37.6165 26.302 37.466V35.424L23.873 36.059C23.5767 36.1388 23.261 36.0999 22.993 35.9505C22.725 35.801 22.5259 35.553 22.438 35.259C22.355 34.9 22.245 34.569 22.162 34.21C22.0944 33.9175 22.143 33.6103 22.2974 33.3529C22.4519 33.0955 22.7001 32.908 22.99 32.83C24.09 32.53 25.198 32.25 26.303 31.947V30.428L23.874 31.063C23.5812 31.1482 23.2667 31.1149 22.9982 30.9703C22.7298 30.8257 22.5289 30.5814 22.439 30.29C22.356 29.931 22.246 29.572 22.163 29.241C22.0954 28.9485 22.144 28.6413 22.2984 28.3839C22.4529 28.1265 22.7011 27.939 22.991 27.861C24.091 27.585 25.199 27.281 26.304 26.978V24.714C26.3071 24.6475 26.2963 24.5811 26.2723 24.519C26.2483 24.4569 26.2116 24.4005 26.1645 24.3535C26.1175 24.3064 26.0611 24.2697 25.999 24.2457C25.9369 24.2217 25.8705 24.2109 25.804 24.214L25.805 24.217Z" fill="white"/>
</g>
<defs>
<linearGradient id="paint0_linear_1404_1426" x1="3.39988e-06" y1="55.72" x2="54.768" y2="0.783997" gradientUnits="userSpaceOnUse">
<stop stop-color="#0094D9"/>
<stop offset="1" stop-color="#18BDCA"/>
</linearGradient>
<linearGradient id="paint1_linear_1404_1426" x1="3.39988e-06" y1="55.72" x2="54.768" y2="0.783997" gradientUnits="userSpaceOnUse">
<stop stop-color="#0094D9"/>
<stop offset="1" stop-color="#18BDCA"/>
</linearGradient>
<clipPath id="clip0_1404_1426">
<rect width="56" height="56" rx="8" fill="white"/>
</clipPath>
</defs>
</svg>