<svg xmlns:xlink="http://www.w3.org/1999/xlink" xmlns="http://www.w3.org/2000/svg" width="56" height="56" viewBox="0 0 56 56" fill="none">
<g clip-path="url(#clip0_1406_1393)">
<rect width="56" height="56" rx="8" fill="url(#paint0_linear_1406_1393)"/>
<path fill-rule="evenodd" clip-rule="evenodd" d="M27.3839 24.8C27.5084 24.7378 27.6441 24.7013 27.783 24.6925C27.9219 24.6838 28.0612 24.703 28.1925 24.7491C28.3238 24.7952 28.4445 24.8672 28.5474 24.9609C28.6504 25.0545 28.7335 25.1679 28.7918 25.2942C28.8501 25.4206 28.8824 25.5574 28.8868 25.6965C28.8912 25.8356 28.8676 25.9742 28.8175 26.104C28.7673 26.2338 28.6916 26.3522 28.5948 26.4522C28.498 26.5522 28.3821 26.6317 28.2539 26.686C28.1136 26.7612 27.9589 26.8056 27.8001 26.8164C27.6413 26.8273 27.482 26.8042 27.3328 26.7488C27.1836 26.6934 27.0479 26.6069 26.9346 26.495C26.8214 26.3832 26.7332 26.2485 26.6759 26.1C26.3579 25.219 26.9229 24.987 27.3839 24.8ZM28.4749 22.547C32.1689 22.161 35.8119 26.187 35.8409 29.854C35.9079 38.465 24.9249 39.706 24.4169 34.539C23.8679 28.954 31.0969 31.481 31.4839 26.782C31.5809 25.8313 31.3293 24.8777 30.7758 24.0987C30.2223 23.3197 29.4046 22.7683 28.4749 22.547ZM26.6749 21.347C25.523 21.5037 24.4148 21.8924 23.4174 22.4895C22.4199 23.0866 21.5538 23.8797 20.8715 24.8209C20.1892 25.7621 19.7048 26.8319 19.4475 27.9657C19.1903 29.0994 19.1656 30.2735 19.3749 31.417C19.5771 32.5483 20.0007 33.6286 20.6214 34.5957C21.2421 35.5629 22.0478 36.398 22.992 37.053C23.9363 37.7081 25.0007 38.1702 26.124 38.4128C27.2473 38.6555 28.4075 38.6739 29.5379 38.467C31.7751 38.0522 33.76 36.7755 35.0652 34.9118C36.3704 33.0481 36.8917 30.7465 36.5168 28.5023C36.1419 26.2581 34.9008 24.2508 33.0606 22.9126C31.2205 21.5743 28.9285 21.0121 26.6779 21.347H26.6749Z" fill="#E4C25E"/>
<path fill-rule="evenodd" clip-rule="evenodd" d="M38.691 32.467C37.491 34.513 38.291 35.207 35.071 38.198C30.637 42.321 22.416 41.631 18.671 35.741C17.971 34.641 17.694 33.289 17.146 32.376C16.062 39.584 21.106 45.393 27.813 45.476C30.1562 45.5092 32.4485 44.7916 34.3546 43.4282C36.2606 42.0649 37.6803 40.1273 38.406 37.899C38.83 36.626 39.338 33.753 38.689 32.467H38.691Z" fill="#E4C25E"/>
<path fill-rule="evenodd" clip-rule="evenodd" d="M27.1309 15.976C26.9307 16.1048 26.7028 16.1843 26.4659 16.2081C26.229 16.2319 25.9898 16.1993 25.7679 16.113C25.1269 14.66 26.0249 14.901 25.9679 13.559C25.9339 12.815 25.4679 11.872 25.3679 10.742C24.2679 13.236 25.1829 12.086 24.9159 13.701C24.7339 14.801 23.7299 14.696 23.7059 16.272C23.6709 18.586 27.3769 21.914 29.9889 19.514C30.3409 19.19 30.5469 18.891 30.8889 18.614C32.1259 17.614 32.8959 16.425 31.6819 14.582C30.5639 12.882 31.2819 13.476 30.9529 12C29.8199 13.076 30.7929 14.35 30.4529 15.822C29.7689 16.342 29.4469 16.393 28.8649 15.722C28.4299 14.297 29.6989 13.359 29.2789 11.914C28.9989 10.95 28.7509 11.233 28.7189 9.92701C28.6959 9.00001 28.7999 8.49601 28.1849 7.93701C27.7969 8.81101 28.2109 8.84901 27.4529 9.73701C25.1049 12.482 27.7609 13.161 27.1359 15.98L27.1309 15.976Z" fill="#E4C25E"/>
<path fill-rule="evenodd" clip-rule="evenodd" d="M27.307 33.079C25.78 33.868 27.034 35.516 28.227 34.988C28.3564 34.9302 28.4729 34.8469 28.5696 34.7433C28.6663 34.6396 28.7412 34.5176 28.7899 34.3844C28.8387 34.2513 28.8602 34.1097 28.8532 33.9681C28.8462 33.8266 28.8109 33.6878 28.7494 33.5601C28.6878 33.4324 28.6013 33.3183 28.4949 33.2246C28.3884 33.131 28.2643 33.0596 28.1298 33.0147C27.9954 32.9699 27.8532 32.9524 27.7119 32.9635C27.5706 32.9745 27.4329 33.0138 27.307 33.079Z" fill="#E4C25E"/>
</g>
<defs>
<linearGradient id="paint0_linear_1406_1393" x1="54.768" y1="56" x2="54.768" y2="0.784" gradientUnits="userSpaceOnUse">
<stop stop-color="#1B2D59"/>
<stop offset="1" stop-color="#2A5FAC"/>
</linearGradient>
<clipPath id="clip0_1406_1393">
<rect width="56" height="56" rx="8" fill="white"/>
</clipPath>
</defs>
</svg>