<svg xmlns:xlink="http://www.w3.org/1999/xlink" xmlns="http://www.w3.org/2000/svg" width="56" height="56" viewBox="0 0 56 56" fill="none">
    <g clip-path="url(#clip0_3061_1994)">
        <rect width="56" height="56" rx="8" fill="#FFC800"/>
        <path d="M41.0952 21.144L38.6922 17.8115C38.3981 17.3555 37.929 16.6331 37.3453 15.7476C35.614 13.1254 35.3035 12.7664 34.7638 11.7037C34.0304 10.2599 33.6636 9.53853 33.5117 8.54406C33.2639 6.92735 33.5909 5.3492 32.9126 5.04744C32.8123 5.00229 32.7154 5.00229 32.5216 5.00009C31.8322 4.99348 31.319 5.36902 31.0448 5.59699C30.2441 6.26327 29.9214 7.08704 29.8487 7.28197C29.3697 8.56608 29.6725 9.72905 29.8465 10.4041C30.0723 11.2775 30.4357 11.9515 30.7364 12.4107C29.8752 11.6299 29.4721 10.8281 29.2816 10.359C29.2221 10.2114 29.003 9.64976 28.9027 8.88215C28.8256 8.29406 28.8367 7.72249 28.8543 6.73353C28.8686 5.91086 28.8994 5.57827 28.6593 5.36682C28.3774 5.11903 27.9215 5.21043 27.7563 5.24457C26.6891 5.46263 24.6418 7.35135 24.3753 10.0418C24.1407 12.4052 25.3973 14.2234 25.8125 14.8236C26.3312 15.5747 26.8885 16.1067 27.3037 16.4525C27.0129 16.2939 26.6869 16.1331 26.329 15.9822C25.8521 15.7807 25.4028 15.6309 24.9975 15.5186C24.9975 15.5186 24.3302 15.3732 23.5934 15.3875C22.1485 15.415 19.4712 16.7432 16.6222 19.2365C15.5671 20.155 11.4208 24.7551 11.5012 31.1735C11.51 31.8475 11.5639 32.4091 11.6135 32.8089C11.8348 32.7373 12.2368 32.6063 12.7467 32.4422C13.6652 32.1459 13.7676 32.1151 13.9758 32.0116C14.3106 31.8453 14.8139 31.5876 15.2026 31.0413C15.2356 30.9951 15.3942 30.7693 15.5253 30.4367C15.6641 30.0854 15.674 29.8663 15.8072 29.1185C15.8469 28.8927 15.8942 28.6669 15.935 28.4412C16.0187 27.9808 16.7742 25.2915 19.1596 23.1153C22.2663 20.2817 26.0394 20.231 26.557 20.2321C30.6813 20.2398 33.3564 22.5944 33.9907 23.1858C34.5017 23.6626 37.4829 26.5381 37.4884 31.1625C37.4884 31.4499 37.4058 36.7251 33.0392 39.9596C30.2816 42.0014 27.3653 42.0829 26.5581 42.0939C25.568 42.1072 23.6804 42.1325 21.741 41.0774C21.741 41.0774 18.8259 39.4905 16.4239 35.0644C16.4019 35.0225 16.3347 34.897 16.2257 34.7395C15.7389 34.0325 15.1024 33.6789 14.8535 33.5446C14.2544 33.2208 13.6421 33.0908 13.4031 33.0402C13.1256 33.0116 12.8414 32.9785 12.5529 32.9422C12.2324 32.9014 11.9196 32.8574 11.6146 32.81C11.7467 34.4278 12.2721 38.0973 14.9713 41.5356C19.7091 47.5707 27.0426 47.6742 27.9986 47.672C28.9457 47.6698 35.8376 47.5365 40.6073 41.9265C44.3374 37.539 44.4618 32.516 44.4949 31.1757C44.5588 28.613 44.0059 26.7198 43.8782 26.3014C43.1403 23.8664 41.919 22.1396 41.0941 21.1462L41.0952 21.144Z" fill="#282828"/>
        <path d="M21.4822 31.2828C22.5813 31.2828 23.4723 30.3918 23.4723 29.2928C23.4723 28.1937 22.5813 27.3027 21.4822 27.3027C20.3832 27.3027 19.4922 28.1937 19.4922 29.2928C19.4922 30.3918 20.3832 31.2828 21.4822 31.2828Z" fill="#282828"/>
    </g>
    <defs>
        <clipPath id="clip0_3061_1994">
            <rect width="56" height="56" rx="8" fill="white"/>
        </clipPath>
    </defs>
</svg>