<svg xmlns:xlink="http://www.w3.org/1999/xlink" xmlns="http://www.w3.org/2000/svg" width="56" height="56" viewBox="0 0 56 56" fill="none">
<g clip-path="url(#clip0_1347_176)">
<rect width="56" height="56" fill="url(#paint0_linear_1347_176)"/>
<path d="M28 56C43.464 56 56 43.464 56 28C56 12.536 43.464 0 28 0C12.536 0 0 12.536 0 28C0 43.464 12.536 56 28 56Z" fill="url(#paint1_linear_1347_176)"/>
<path d="M38.205 28.001C39.81 26.8577 41.156 25.389 42.1554 23.6906C43.1547 21.9922 43.785 20.1023 44.0051 18.144C43.9985 18.114 43.9821 18.0871 43.9586 18.0674C43.9351 18.0477 43.9057 18.0363 43.8751 18.035H38.9401C38.9184 18.0403 38.8984 18.0511 38.8821 18.0663C38.8659 18.0816 38.8538 18.1007 38.847 18.122C38.4959 20.0955 37.4875 21.8922 35.9859 23.2201C34.4843 24.548 32.5777 25.3289 30.576 25.436V25.429H30.569C30.6759 23.4272 31.4568 21.5204 32.7847 20.0186C34.1126 18.5167 35.9094 17.5082 37.8831 17.157C37.9044 17.1504 37.9236 17.1383 37.9388 17.122C37.9541 17.1057 37.9648 17.0857 37.97 17.064V12.132C37.9688 12.1013 37.9574 12.072 37.9377 12.0484C37.918 12.0249 37.891 12.0086 37.861 12.002C35.9026 12.222 34.0126 12.8522 32.314 13.8516C30.6155 14.8509 29.1466 16.197 28.0031 17.802C26.8596 16.1969 25.3906 14.8509 23.6921 13.8515C21.9935 12.8522 20.1034 12.222 18.145 12.002C18.115 12.0086 18.0881 12.0249 18.0684 12.0484C18.0487 12.072 18.0373 12.1013 18.036 12.132V17.064C18.0412 17.0857 18.052 17.1057 18.0673 17.122C18.0825 17.1383 18.1017 17.1504 18.123 17.157C20.0965 17.5084 21.8931 18.517 23.2208 20.0188C24.5485 21.5206 25.3292 23.4273 25.436 25.429H25.4301V25.436C23.4283 25.3289 21.5216 24.548 20.0198 23.2202C18.518 21.8923 17.5094 20.0956 17.158 18.122C17.1513 18.1007 17.1392 18.0816 17.1229 18.0663C17.1066 18.0511 17.0867 18.0403 17.0651 18.035H12.1331C12.1024 18.0363 12.073 18.0477 12.0495 18.0674C12.026 18.0871 12.0096 18.114 12.0031 18.144C12.2231 20.1023 12.8533 21.9922 13.8527 23.6906C14.852 25.389 16.198 26.8577 17.803 28.001C16.198 29.1445 14.8519 30.6134 13.8525 32.312C12.8532 34.0105 12.223 35.9006 12.0031 37.859C12.0095 37.8891 12.0258 37.9161 12.0493 37.9359C12.0729 37.9556 12.1023 37.9669 12.1331 37.968H17.0651C17.0867 37.963 17.1066 37.9524 17.1229 37.9373C17.1392 37.9222 17.1513 37.9032 17.158 37.882C17.5094 35.9084 18.518 34.1117 20.0198 32.7838C21.5216 31.456 23.4283 30.6751 25.4301 30.568V30.575H25.436C25.3292 32.5767 24.5485 34.4834 23.2208 35.9852C21.8931 37.487 20.0965 38.4956 18.123 38.847C18.1017 38.8536 18.0824 38.8656 18.0671 38.8819C18.0519 38.8982 18.0411 38.9183 18.036 38.94V43.872C18.0373 43.9027 18.0487 43.9321 18.0684 43.9556C18.0881 43.9791 18.115 43.9954 18.145 44.002C20.1034 43.782 21.9935 43.1518 23.6921 42.1524C25.3906 41.1531 26.8595 39.807 28.0031 38.202C29.1466 39.807 30.6155 41.1531 32.314 42.1524C34.0126 43.1518 35.9026 43.782 37.861 44.002C37.891 43.9954 37.918 43.9791 37.9377 43.9556C37.9574 43.9321 37.9688 43.9027 37.97 43.872V38.94C37.9649 38.9183 37.9542 38.8982 37.9389 38.8819C37.9236 38.8656 37.9044 38.8536 37.8831 38.847C35.9094 38.4958 34.1126 37.4873 32.7847 35.9855C31.4568 34.4837 30.6759 32.5768 30.569 30.575H30.576V30.572C32.5777 30.6791 34.4843 31.4601 35.9859 32.7879C37.4875 34.1158 38.4959 35.9125 38.847 37.886C38.8538 37.9072 38.8658 37.9262 38.8821 37.9413C38.8984 37.9564 38.9184 37.967 38.9401 37.972H43.872C43.9027 37.9709 43.9322 37.9596 43.9557 37.9398C43.9793 37.9201 43.9956 37.8931 44.002 37.863C43.783 35.9041 43.1535 34.0134 42.1547 32.3141C41.1558 30.6149 39.81 29.1452 38.205 28.001Z" fill="white"/>
</g>
<defs>
<linearGradient id="paint0_linear_1347_176" x1="5.32" y1="50.68" x2="50.68" y2="5.32" gradientUnits="userSpaceOnUse">
<stop stop-color="#E50036"/>
<stop offset="1" stop-color="#FFBE1A"/>
</linearGradient>
<linearGradient id="paint1_linear_1347_176" x1="5.32" y1="50.68" x2="50.68" y2="5.32" gradientUnits="userSpaceOnUse">
<stop stop-color="#E50036"/>
<stop offset="1" stop-color="#FFBE1A"/>
</linearGradient>
<clipPath id="clip0_1347_176">
<rect width="56" height="56" rx="8" fill="white"/>
</clipPath>
</defs>
</svg>