<svg xmlns:xlink="http://www.w3.org/1999/xlink" class="h-[38px] w-[38px] md:h-[60px] md:w-[60px]" width="60" height="60" viewBox="0 0 38 38" fill="none" xmlns="http://www.w3.org/2000/svg">
  <g clip-path="url(#clip0_1841_6252)" fill="none">
    <rect x="0.5" y="0.5" width="37" height="37" rx="3.5" stroke="#FB7600" fill="none"></rect>
    <g clip-path="url(#clip1_1841_6252)" fill="none">
      <path d="M9 10.75C9 9.50781 9.98724 8.5 11.2041 8.5H15.6122C16.8291 8.5 17.8163 9.50781 17.8163 10.75V15.25C17.8163 16.4922 16.8291 17.5 15.6122 17.5H11.2041C9.98724 17.5 9 16.4922 9 15.25V10.75ZM11.9388 11.5V14.5H14.8776V11.5H11.9388ZM9 22.75C9 21.5078 9.98724 20.5 11.2041 20.5H15.6122C16.8291 20.5 17.8163 21.5078 17.8163 22.75V27.25C17.8163 28.4922 16.8291 29.5 15.6122 29.5H11.2041C9.98724 29.5 9 28.4922 9 27.25V22.75ZM11.9388 23.5V26.5H14.8776V23.5H11.9388ZM22.9592 8.5H27.3673C28.5842 8.5 29.5714 9.50781 29.5714 10.75V15.25C29.5714 16.4922 28.5842 17.5 27.3673 17.5H22.9592C21.7423 17.5 20.7551 16.4922 20.7551 15.25V10.75C20.7551 9.50781 21.7423 8.5 22.9592 8.5ZM26.6327 11.5H23.6939V14.5H26.6327V11.5ZM20.7551 21.25C20.7551 20.8375 21.0857 20.5 21.4898 20.5H24.4286C24.8327 20.5 25.1633 20.8375 25.1633 21.25C25.1633 21.6625 25.4939 22 25.898 22H27.3673C27.7714 22 28.102 21.6625 28.102 21.25C28.102 20.8375 28.4327 20.5 28.8367 20.5C29.2408 20.5 29.5714 20.8375 29.5714 21.25V25.75C29.5714 26.1625 29.2408 26.5 28.8367 26.5H25.898C25.4939 26.5 25.1633 26.1625 25.1633 25.75C25.1633 25.3375 24.8327 25 24.4286 25C24.0245 25 23.6939 25.3375 23.6939 25.75V28.75C23.6939 29.1625 23.3633 29.5 22.9592 29.5H21.4898C21.0857 29.5 20.7551 29.1625 20.7551 28.75V21.25ZM25.898 29.5C25.7031 29.5 25.5162 29.421 25.3785 29.2803C25.2407 29.1397 25.1633 28.9489 25.1633 28.75C25.1633 28.5511 25.2407 28.3603 25.3785 28.2197C25.5162 28.079 25.7031 28 25.898 28C26.0928 28 26.2797 28.079 26.4175 28.2197C26.5552 28.3603 26.6327 28.5511 26.6327 28.75C26.6327 28.9489 26.5552 29.1397 26.4175 29.2803C26.2797 29.421 26.0928 29.5 25.898 29.5ZM28.8367 29.5C28.6419 29.5 28.455 29.421 28.3172 29.2803C28.1794 29.1397 28.102 28.9489 28.102 28.75C28.102 28.5511 28.1794 28.3603 28.3172 28.2197C28.455 28.079 28.6419 28 28.8367 28C29.0316 28 29.2185 28.079 29.3562 28.2197C29.494 28.3603 29.5714 28.5511 29.5714 28.75C29.5714 28.9489 29.494 29.1397 29.3562 29.2803C29.2185 29.421 29.0316 29.5 28.8367 29.5Z" fill="#FB7600"></path>
    </g>
  </g>
  <defs>
    <clipPath id="clip0_1841_6252">
      <rect width="38" height="38" fill="white"></rect>
    </clipPath>
    <clipPath id="clip1_1841_6252">
      <rect width="20.5714" height="24" fill="white" transform="translate(9 7)"></rect>
    </clipPath>
  </defs>
</svg>