<svg xmlns:xlink="http://www.w3.org/1999/xlink" xmlns="http://www.w3.org/2000/svg" width="234" height="48" viewBox="0 0 234 48" fill="none">
  <path d="M17.5235 0.71875H38.2458L11.4911 46.5572L0.886597 29.1954L17.5235 0.71875Z" fill="#D82336"/>
  <path d="M54.8712 29.1951L48.6012 18.4512H27.8673L44.2724 46.5569L54.8712 29.1951Z" fill="#D82336"/>
  <path d="M87.6988 32.4987L80.6349 22.7979L77.9982 25.5331V32.4987H72.9857V9.70117H77.9982V19.6628L87.2468 9.70117H93.3023L84.0248 19.373L93.7312 32.4929H87.7046L87.6988 32.4987Z" fill="#101820"/>
  <path d="M112.64 32.4987V23.3484H103.391V32.4987H98.3787V9.70117H103.391V18.7182H112.64V9.70117H117.652V32.4929H112.64V32.4987Z" fill="#101820"/>
  <path d="M141.718 32.4989L139.632 27.3877H129.995L127.909 32.4989H122.798L132.568 9.54492H137.192L146.962 32.4989H141.718ZM134.816 15.5659L131.786 22.9604H137.841L134.811 15.5659H134.816Z" fill="#101820"/>
  <path d="M152.102 32.4987V9.70117H157.115V27.967H168.479V32.4929H152.102V32.4987Z" fill="#101820"/>
  <path d="M174.117 32.4987V9.70117H179.129V32.4929H174.117V32.4987Z" fill="#101820"/>
  <path d="M191.472 14.2271V19.1412H202.349V23.6671H191.472V32.4929H186.46V9.70117H203.815V14.2271H191.472Z" fill="#101820"/>
  <path d="M226.409 32.4989L224.323 27.3877H214.686L212.6 32.4989H207.489L217.259 9.54492H221.884L231.654 32.4989H226.409ZM219.508 15.5659L216.477 22.9604H222.533L219.502 15.5659H219.508Z" fill="#101820"/>
  <path d="M78.1895 45.8722C78.0794 46.0866 77.9172 46.272 77.7086 46.4169C77.4999 46.5618 77.2508 46.6719 76.961 46.7414C76.6713 46.811 76.3468 46.8515 75.9875 46.8515H72.98V40.5176H75.9122C76.5612 40.5176 77.0711 40.6682 77.442 40.958C77.8129 41.2535 77.9983 41.6534 77.9983 42.1518V42.1692C77.9983 42.3488 77.9751 42.5111 77.9288 42.6501C77.8824 42.7892 77.8244 42.9167 77.7491 43.0268C77.6738 43.1369 77.5869 43.2354 77.4883 43.3224C77.3898 43.4093 77.2855 43.4788 77.1696 43.5368C77.5347 43.6759 77.8244 43.8613 78.0331 44.1047C78.2417 44.3423 78.346 44.6726 78.346 45.0956V45.113C78.346 45.4028 78.288 45.6577 78.1779 45.8722H78.1895ZM76.6249 42.3894C76.6249 42.1807 76.5438 42.0185 76.3873 41.9026C76.2309 41.7925 76.0049 41.7345 75.7093 41.7345H74.336V43.0732H75.6224C75.9295 43.0732 76.1729 43.021 76.3526 42.9167C76.5322 42.8124 76.6249 42.6386 76.6249 42.4067V42.3894ZM76.9784 44.9276C76.9784 44.719 76.8973 44.5509 76.735 44.4234C76.5728 44.3017 76.312 44.238 75.9469 44.238H74.336V45.6288H75.9933C76.3004 45.6288 76.5438 45.5708 76.7176 45.4607C76.8915 45.3506 76.9784 45.1768 76.9784 44.9392V44.9218V44.9276Z" fill="#101820"/>
  <path d="M94.8901 46.8515V40.5176H99.6593V41.7577H96.2693V43.0442H99.2536V44.2843H96.2693V45.6114H99.7056V46.8515H94.8959H94.8901Z" fill="#101820"/>
  <path d="M119.576 46.8979H118.348L115.786 40.5176H117.322L118.979 44.9797L120.637 40.5176H122.137L119.576 46.8979Z" fill="#101820"/>
  <path d="M138.49 46.8515V40.5176H143.259V41.7577H139.87V43.0442H142.854V44.2843H139.87V45.6114H143.306V46.8515H138.496H138.49Z" fill="#101820"/>
  <path d="M163.773 46.8515L162.417 44.8233H161.322V46.8515H159.931V40.5176H162.829C163.582 40.5176 164.167 40.703 164.59 41.0681C165.007 41.4332 165.216 41.9489 165.216 42.6038V42.6212C165.216 43.1311 165.089 43.5542 164.839 43.8729C164.59 44.1974 164.26 44.435 163.86 44.5857L165.407 46.8457H163.779L163.773 46.8515ZM163.802 42.6791C163.802 42.3778 163.704 42.1518 163.512 42.0011C163.321 41.8504 163.049 41.7751 162.707 41.7751H161.322V43.5947H162.736C163.078 43.5947 163.344 43.5136 163.53 43.3513C163.715 43.1891 163.808 42.9689 163.808 42.7023V42.6849L163.802 42.6791Z" fill="#101820"/>
  <path d="M186.558 46.853L185.979 45.4332H183.302L182.722 46.853H181.302L184.014 40.4727H185.301L188.013 46.853H186.558ZM184.64 42.1474L183.8 44.1988H185.481L184.64 42.1474Z" fill="#101820"/>
  <path d="M208.961 46.6669C208.509 46.8639 207.999 46.9624 207.42 46.9624C206.927 46.9624 206.475 46.8813 206.07 46.719C205.664 46.5568 205.31 46.3308 205.021 46.041C204.731 45.7513 204.499 45.4094 204.337 45.0095C204.175 44.6096 204.094 44.175 204.094 43.7056V43.6882C204.094 43.2362 204.175 42.8132 204.343 42.4191C204.511 42.0251 204.737 41.6774 205.032 41.376C205.328 41.0747 205.675 40.8429 206.081 40.669C206.487 40.4952 206.927 40.4141 207.408 40.4141C207.692 40.4141 207.947 40.4314 208.179 40.472C208.411 40.5126 208.625 40.5647 208.828 40.6401C209.025 40.7096 209.216 40.8023 209.39 40.9124C209.564 41.0225 209.732 41.1442 209.894 41.2833L209.019 42.3438C208.897 42.2395 208.776 42.1526 208.66 42.0714C208.538 41.9903 208.416 41.9266 208.283 41.8744C208.156 41.8223 208.011 41.7759 207.86 41.7469C207.709 41.7179 207.541 41.7006 207.362 41.7006C207.107 41.7006 206.869 41.7527 206.649 41.857C206.429 41.9613 206.238 42.1062 206.07 42.2858C205.901 42.4655 205.774 42.6741 205.681 42.9117C205.589 43.1493 205.542 43.4043 205.542 43.6767V43.694C205.542 43.9838 205.589 44.2504 205.681 44.4937C205.774 44.7371 205.907 44.9515 206.081 45.1312C206.255 45.3108 206.458 45.4557 206.69 45.5542C206.921 45.6527 207.182 45.7049 207.46 45.7049C207.976 45.7049 208.416 45.5774 208.77 45.3224V44.4126H207.368V43.2073H210.12V45.9599C209.796 46.238 209.407 46.4756 208.955 46.6727L208.961 46.6669Z" fill="#101820"/>
  <path d="M226.838 46.8515V40.5176H231.607V41.7577H228.217V43.0442H231.202V44.2843H228.217V45.6114H231.654V46.8515H226.844H226.838Z" fill="#101820"/>
</svg>