<svg xmlns:xlink="http://www.w3.org/1999/xlink" xmlns="http://www.w3.org/2000/svg" width="234" height="48" viewBox="0 0 234 48" fill="none">
<path d="M17.5236 0.718628H38.2459L11.4912 46.5571L0.886719 29.1953L17.5236 0.718628Z" fill="#D82336"/>
<path d="M54.871 29.1952L48.601 18.4513H27.8672L44.2723 46.5571L54.871 29.1952Z" fill="#D82336"/>
<path d="M87.6989 32.4983L80.635 22.7975L77.9984 25.5328V32.4983H72.9858V9.70081H77.9984V19.6624L87.2469 9.70081H93.3025L84.025 19.3727L93.7313 32.4925H87.7047L87.6989 32.4983Z" fill="white"/>
<path d="M112.64 32.4983V23.348H103.391V32.4983H98.3789V9.70081H103.391V18.7178H112.64V9.70081H117.652V32.4925H112.64V32.4983Z" fill="white"/>
<path d="M141.718 32.4983L139.632 27.3871H129.995L127.909 32.4983H122.798L132.568 9.54431H137.192L146.962 32.4983H141.718ZM134.816 15.5653L131.786 22.9597H137.841L134.811 15.5653H134.816Z" fill="white"/>
<path d="M152.103 32.4983V9.70081H157.115V27.9667H168.479V32.4925H152.103V32.4983Z" fill="white"/>
<path d="M174.117 32.4983V9.70081H179.13V32.4925H174.117V32.4983Z" fill="white"/>
<path d="M191.472 14.2267V19.1409H202.349V23.6668H191.472V32.4925H186.46V9.70081H203.815V14.2267H191.472Z" fill="white"/>
<path d="M226.409 32.4983L224.323 27.3871H214.686L212.6 32.4983H207.489L217.259 9.54431H221.884L231.654 32.4983H226.409ZM219.508 15.5653L216.477 22.9597H222.533L219.502 15.5653H219.508Z" fill="white"/>
<path d="M78.1895 45.8733C78.0794 46.0877 77.9172 46.2731 77.7086 46.418C77.4999 46.5629 77.2508 46.673 76.961 46.7425C76.6713 46.8121 76.3468 46.8526 75.9875 46.8526H72.98V40.5187H75.9122C76.5612 40.5187 77.0711 40.6693 77.442 40.9591C77.8129 41.2546 77.9983 41.6545 77.9983 42.1529V42.1703C77.9983 42.3499 77.9751 42.5122 77.9288 42.6512C77.8824 42.7903 77.8244 42.9178 77.7491 43.0279C77.6738 43.138 77.5869 43.2365 77.4883 43.3235C77.3898 43.4104 77.2855 43.4799 77.1696 43.5379C77.5347 43.677 77.8244 43.8624 78.0331 44.1058C78.2417 44.3434 78.346 44.6737 78.346 45.0967V45.1141C78.346 45.4039 78.288 45.6588 78.1779 45.8733H78.1895ZM76.6249 42.3905C76.6249 42.1818 76.5438 42.0196 76.3873 41.9037C76.2309 41.7936 76.0049 41.7356 75.7093 41.7356H74.336V43.0743H75.6224C75.9295 43.0743 76.1729 43.0221 76.3526 42.9178C76.5322 42.8135 76.6249 42.6396 76.6249 42.4078V42.3905ZM76.9784 44.9287C76.9784 44.7201 76.8973 44.552 76.735 44.4245C76.5728 44.3028 76.312 44.2391 75.9469 44.2391H74.336V45.6299H75.9933C76.3004 45.6299 76.5438 45.5719 76.7176 45.4618C76.8915 45.3517 76.9784 45.1779 76.9784 44.9403V44.9229V44.9287Z" fill="white"/>
<path d="M94.8901 46.8526V40.5187H99.6593V41.7588H96.2693V43.0453H99.2536V44.2854H96.2693V45.6125H99.7056V46.8526H94.8959H94.8901Z" fill="white"/>
<path d="M119.576 46.899H118.347L115.786 40.5187H117.322L118.979 44.9808L120.636 40.5187H122.137L119.576 46.899Z" fill="white"/>
<path d="M138.49 46.8526V40.5187H143.259V41.7588H139.869V43.0453H142.854V44.2854H139.869V45.6125H143.306V46.8526H138.496H138.49Z" fill="white"/>
<path d="M163.773 46.8526L162.417 44.8244H161.322V46.8526H159.931V40.5187H162.829C163.582 40.5187 164.167 40.7041 164.59 41.0692C165.007 41.4343 165.216 41.95 165.216 42.6049V42.6223C165.216 43.1322 165.089 43.5553 164.839 43.874C164.59 44.1985 164.26 44.4361 163.86 44.5868L165.407 46.8468H163.779L163.773 46.8526ZM163.802 42.6802C163.802 42.3789 163.704 42.1529 163.512 42.0022C163.321 41.8515 163.049 41.7762 162.707 41.7762H161.322V43.5958H162.736C163.078 43.5958 163.344 43.5147 163.53 43.3524C163.715 43.1902 163.808 42.97 163.808 42.7034V42.686L163.802 42.6802Z" fill="white"/>
<path d="M186.558 46.8526L185.979 45.4328H183.301L182.722 46.8526H181.302L184.014 40.4723H185.301L188.013 46.8526H186.558ZM184.64 42.147L183.8 44.1985H185.48L184.64 42.147Z" fill="white"/>
<path d="M208.961 46.6671C208.509 46.8641 207.999 46.9627 207.419 46.9627C206.927 46.9627 206.475 46.8815 206.069 46.7193C205.664 46.557 205.31 46.331 205.02 46.0413C204.731 45.7515 204.499 45.4096 204.337 45.0097C204.174 44.6099 204.093 44.1753 204.093 43.7059V43.6885C204.093 43.2365 204.174 42.8134 204.342 42.4194C204.51 42.0253 204.736 41.6776 205.032 41.3763C205.328 41.0749 205.675 40.8431 206.081 40.6693C206.487 40.4954 206.927 40.4143 207.408 40.4143C207.692 40.4143 207.947 40.4317 208.179 40.4723C208.41 40.5128 208.625 40.565 208.828 40.6403C209.025 40.7099 209.216 40.8026 209.39 40.9127C209.564 41.0228 209.732 41.1445 209.894 41.2836L209.019 42.344C208.897 42.2397 208.775 42.1528 208.66 42.0717C208.538 41.9905 208.416 41.9268 208.283 41.8746C208.155 41.8225 208.011 41.7761 207.86 41.7472C207.709 41.7182 207.541 41.7008 207.362 41.7008C207.107 41.7008 206.869 41.753 206.649 41.8573C206.429 41.9616 206.237 42.1064 206.069 42.2861C205.901 42.4657 205.774 42.6744 205.681 42.912C205.588 43.1496 205.542 43.4045 205.542 43.6769V43.6943C205.542 43.984 205.588 44.2506 205.681 44.494C205.774 44.7374 205.907 44.9518 206.081 45.1314C206.255 45.3111 206.458 45.456 206.689 45.5545C206.921 45.653 207.182 45.7051 207.46 45.7051C207.976 45.7051 208.416 45.5777 208.77 45.3227V44.4129H207.367V43.2075H210.12V45.9601C209.795 46.2383 209.407 46.4759 208.955 46.6729L208.961 46.6671Z" fill="white"/>
<path d="M226.838 46.8526V40.5187H231.608V41.7588H228.218V43.0453H231.202V44.2854H228.218V45.6125H231.654V46.8526H226.844H226.838Z" fill="white"/>
</svg>